<svg xmlns:xlink="http://www.w3.org/1999/xlink" xmlns="http://www.w3.org/2000/svg" viewBox="0 0 500 500"><defs><style>.cls-1{fill:none;}.cls-2{isolation:isolate;}.cls-3{fill:#005d87;}.cls-4{mix-blend-mode:soft-light;fill:url(#Degradado_sin_nombre_62);}.cls-5{clip-path:url(#clip-path);}.cls-6{fill:url(#Degradado_sin_nombre_28);}.cls-7{fill:url(#Degradado_sin_nombre_28-2);}.cls-23,.cls-8{opacity:0.4;}.cls-10,.cls-23,.cls-9{fill:#27c3da;}.cls-10,.cls-27{opacity:0.6;}.cls-11{fill:#85dbf0;}.cls-12{fill:url(#Degradado_sin_nombre_28-4);}.cls-13{fill:url(#Degradado_sin_nombre_28-5);}.cls-14{fill:url(#Degradado_sin_nombre_28-6);}.cls-15{fill:url(#Degradado_sin_nombre_28-7);}.cls-16{fill:url(#Degradado_sin_nombre_28-8);}.cls-17{fill:url(#Degradado_sin_nombre_28-9);}.cls-18{fill:url(#Degradado_sin_nombre_28-10);}.cls-19{fill:url(#Degradado_sin_nombre_28-11);}.cls-20{fill:#7ddbe9;}.cls-21{fill:url(#Degradado_sin_nombre_28-12);}.cls-22{fill:url(#Degradado_sin_nombre_28-13);}.cls-24{opacity:0.5;}.cls-25{fill:#e7f8fc;}.cls-26{fill:url(#Degradado_sin_nombre_28-14);}.cls-28{fill:#eacdb0;}.cls-29{fill:#3b455a;}.cls-30{fill:#305399;}.cls-31{fill:#f7f7f7;}.cls-32{fill:#587bc9;}.cls-33{fill:#7db5db;}.cls-34{opacity:0.51;}.cls-35{fill:#fff;}</style><linearGradient id="Degradado_sin_nombre_62" x1="500" y1="500" x2="0" gradientUnits="userSpaceOnUse"><stop offset="0"/><stop offset="0.12" stop-color="#001c25"/><stop offset="0.45" stop-color="#006481"/><stop offset="0.71" stop-color="#0098c5"/><stop offset="0.9" stop-color="#00b9ef"/><stop offset="1" stop-color="#00c5ff"/></linearGradient><clipPath id="clip-path"><rect class="cls-1" x="18" y="81.11" width="482" height="418.89"/></clipPath><linearGradient id="Degradado_sin_nombre_28" x1="484.82" y1="420.8" x2="255.26" y2="191.23" gradientTransform="matrix(-0.9, 0.44, 0.44, 0.9, 438.68, -121.07)" gradientUnits="userSpaceOnUse"><stop offset="0" stop-color="#27c3da"/><stop offset="0.45" stop-color="#85dbf0"/><stop offset="1" stop-color="#c4eef8"/></linearGradient><linearGradient id="Degradado_sin_nombre_28-2" x1="224.5" y1="458.86" x2="220.18" y2="454.54" xlink:href="#Degradado_sin_nombre_28"/><linearGradient id="Degradado_sin_nombre_28-4" x1="429.41" y1="483.24" x2="289.94" y2="343.77" xlink:href="#Degradado_sin_nombre_28"/><linearGradient id="Degradado_sin_nombre_28-5" x1="172.23" y1="116.26" x2="215.82" y2="116.26" gradientTransform="matrix(1, 0, 0, 1, 0, 0)" xlink:href="#Degradado_sin_nombre_28"/><linearGradient id="Degradado_sin_nombre_28-6" x1="32.17" y1="362.25" x2="68.8" y2="362.25" gradientTransform="matrix(1, 0, 0, 1, 0, 0)" xlink:href="#Degradado_sin_nombre_28"/><linearGradient id="Degradado_sin_nombre_28-7" x1="43.32" y1="198.15" x2="74.36" y2="198.15" gradientTransform="matrix(1, 0, 0, 1, 0, 0)" xlink:href="#Degradado_sin_nombre_28"/><linearGradient id="Degradado_sin_nombre_28-8" x1="173.52" y1="218.97" x2="287.65" y2="218.97" gradientTransform="matrix(1, 0, 0, 1, 0, 0)" xlink:href="#Degradado_sin_nombre_28"/><linearGradient id="Degradado_sin_nombre_28-9" x1="169.51" y1="246.56" x2="219.99" y2="246.56" gradientTransform="matrix(1, 0, 0, 1, 0, 0)" xlink:href="#Degradado_sin_nombre_28"/><linearGradient id="Degradado_sin_nombre_28-10" x1="34.38" y1="211.16" x2="50.57" y2="211.16" gradientTransform="matrix(1, 0, 0, 1, 0, 0)" xlink:href="#Degradado_sin_nombre_28"/><linearGradient id="Degradado_sin_nombre_28-11" x1="164.62" y1="122.79" x2="177.79" y2="122.79" gradientTransform="matrix(1, 0, 0, 1, 0, 0)" xlink:href="#Degradado_sin_nombre_28"/><linearGradient id="Degradado_sin_nombre_28-12" x1="30.2" y1="378.2" x2="53.33" y2="378.2" gradientTransform="matrix(1, 0, 0, 1, 0, 0)" xlink:href="#Degradado_sin_nombre_28"/><linearGradient id="Degradado_sin_nombre_28-13" x1="447.39" y1="458.03" x2="367.82" y2="320.22" gradientTransform="matrix(-0.93, 0.38, 0.38, 0.93, 481.17, -78.65)" xlink:href="#Degradado_sin_nombre_28"/><linearGradient id="Degradado_sin_nombre_28-14" x1="364.89" y1="434.84" x2="270.73" y2="340.67" gradientTransform="matrix(-0.95, 0.3, 0.3, 0.95, 492.58, -105.08)" xlink:href="#Degradado_sin_nombre_28"/></defs><title>Mesa de trabajo 1</title><g class="cls-2"><g id="BACKGROUND_1" data-name="BACKGROUND 1"><rect class="cls-3" width="500" height="500"/><rect class="cls-4" width="500" height="500"/><g class="cls-5"><path class="cls-6" d="M60,347.43C9,200,143.81,135.1,201.39,137.51c34.07,1.42,61.19,13.48,79,29.67A6.28,6.28,0,0,1,276,178.06a123.38,123.38,0,0,0-95.45,41.84,43.63,43.63,0,0,0-4,4.84A123.09,123.09,0,0,0,162.33,355c22.86,47.05,61.24,70.35,122.16,73.83C364.81,433.41,422,389.21,422,389.21s2.14,61.67-112.16,84.48C225.21,490.58,102.65,470.69,60,347.43Z"/><path class="cls-7" d="M440.22,390.76,436.44,383A15.28,15.28,0,0,1,440.22,390.76Z"/><g class="cls-8"><path class="cls-9" d="M139.15,274.49C169,167.16,276,178.06,276,178.06a123.38,123.38,0,0,0-95.45,41.84,43.63,43.63,0,0,0-4,4.84A123.09,123.09,0,0,0,162.33,355c22.86,47.05,78.89,80.21,128.08,76.14,8,.75,12.76,1.46,21.73,1.32,40.59-.61,68.61-4.28,87.85-9.31-3.78,7.38-7.35,14.86-10.65,22.44-57.23-13.94-126.27,1.87-165.23-9.6C161.67,417.6,119.84,343.91,139.15,274.49Z"/><path class="cls-7" d="M440.22,390.76,436.44,383A15.28,15.28,0,0,1,440.22,390.76Z"/></g><path class="cls-10" d="M59.65,347.43C35,269.37,59.31,214.78,96.29,180.86A166.11,166.11,0,0,0,74,361.59c41.41,85.23,158.82,134.44,244,93,7.19-3.49,27.59-10.07,34.05-14.39,99-3.89,89.69-38.62,88.15-49.46,0,0-33,68.4-131.44,88.72C256.77,490.21,105.33,492.14,59.65,347.43Z"/><g class="cls-8"><path class="cls-9" d="M162,453.18l-3.31-1.62c-.24-.11-.61-.3-1-.5l-1.19-.63L153.83,449c-1.75-1.06-3.81-2.21-6-3.69a111.26,111.26,0,0,1-14.62-11.53,124.24,124.24,0,0,1-15.65-17.6,130.54,130.54,0,0,1-7.34-11l-.88-1.48-.11-.18-.15-.25,0-.08-.19-.35-.38-.69-1.57-2.85-1.7-3.24c-.55-1.08-1-2.13-1.57-3.21a184.35,184.35,0,0,1-10.46-27.6c-1.43-4.85-2.7-9.8-3.84-14.81-.57-2.51-1.1-5-1.61-7.57-.24-1.27-.49-2.54-.73-3.81l-.13-.63-.07-.46-.15-.93-.3-1.87-.3-1.88-.28-2c-.18-1.36-.35-2.72-.53-4.09-.25-2.69-.54-5.36-.66-8.07s-.21-5.42-.26-8.13.06-5.42.24-8.12a158.93,158.93,0,0,1,5.11-31.47c1.33-5,2.78-9.94,4.39-14.71.4-1.22.8-2.42,1.21-3.63s.76-2.29,1.21-3.5l1.35-3.59,1.43-3.45a135.32,135.32,0,0,1,13.84-24.84q3.9-5.53,8.06-10.35c2.78-3.19,5.61-6.14,8.43-8.84a114.64,114.64,0,0,1,16.69-13.2,91.51,91.51,0,0,1,14.45-7.62,67.93,67.93,0,0,1,9.93-3.29c1.16-.32,2.08-.46,2.68-.61l.92-.19-.9.27c-.59.19-1.49.4-2.62.81a67.65,67.65,0,0,0-9.55,4,88.51,88.51,0,0,0-13.53,8.57,111,111,0,0,0-15.15,14.06c-2.52,2.83-5,5.88-7.43,9.15s-4.72,6.78-6.92,10.49A128.59,128.59,0,0,0,107,245.38l-1.08,3.34-1,3.34c-.33,1.1-.61,2.35-.92,3.52l-.23.9-.06.22,0,.11c0,.06,0-.06,0,0l-.1.45-.37,1.78c-1,4.77-1.88,9.6-2.59,14.46a144.7,144.7,0,0,0-1.44,29.29c.1,2.42.36,4.84.6,7.24s.59,4.8,1,7.17.91,4.73,1.39,7.07l.84,3.4.42,1.7.51,1.83a242.89,242.89,0,0,0,9.19,27,161.06,161.06,0,0,0,11.66,23.17c.53.86,1.07,1.7,1.59,2.55s1,1.56,1.56,2.34c.24.36.58.84.88,1.27s.6.87.91,1.3l.45.65.22.32.06.08c.11.17-.08-.13,0-.08l.1.14.85,1.13a106.85,106.85,0,0,0,6.86,8.29,96.92,96.92,0,0,0,13.62,12.4,82.58,82.58,0,0,0,11.63,7.33c1.65.9,3.2,1.52,4.49,2.15l3.1,1.24,3.46,1.26Z"/></g><g class="cls-8"><path class="cls-9" d="M107.67,415l-1-1.69c-.64-1.12-1.56-2.68-2.75-4.84l-2-3.53-2.22-4.15c-1.56-3-3.3-6.35-5.11-10.07s-3.7-7.79-5.61-12.12-3.83-9-5.65-13.8c-1-2.4-1.8-4.89-2.71-7.39s-1.75-5.06-2.53-7.66c-1.65-5.16-3.09-10.5-4.38-15.85s-2.31-10.79-3.14-16.15-1.3-10.68-1.59-15.83a143.84,143.84,0,0,1,.06-14.86,113.6,113.6,0,0,1,1.61-13.19A96.19,96.19,0,0,1,73.32,263c.42-1.61,1-3.06,1.45-4.42s1-2.58,1.41-3.69c.86-2.22,1.7-3.89,2.24-5l.83-1.76-.69,1.82c-.44,1.19-1.14,2.92-1.81,5.19-.35,1.13-.78,2.36-1.1,3.75s-.79,2.85-1.08,4.47a96.15,96.15,0,0,0-1.68,10.87,113.38,113.38,0,0,0-.52,12.95,139,139,0,0,0,1.1,14.4c.68,5,1.56,10.05,2.78,15.16S78.85,327,80.53,332,84,342.1,86,347c1,2.44,2,4.82,3,7.18s2.08,4.67,3.18,6.91c2.13,4.53,4.37,8.81,6.51,12.85s4.32,7.8,6.36,11.24,4,6.55,5.7,9.29c.87,1.37,1.7,2.64,2.45,3.82l2.12,3.19c1.25,1.9,2.37,3.47,3.07,4.51l1.1,1.61Z"/></g><g class="cls-8"><path class="cls-9" d="M163.86,442.67s-.45-.57-1.28-1.65L161,439c-.6-.77-1.3-1.66-2.09-2.74-1.58-2.12-3.5-4.69-5.57-7.66-1.06-1.47-2.14-3.07-3.27-4.77l-1.75-2.59c-.57-.91-1.16-1.83-1.76-2.77l-1.84-2.88-1.83-3c-1.26-2.05-2.49-4.21-3.75-6.44s-2.47-4.56-3.76-6.91-2.47-4.84-3.66-7.36c-2.41-5-4.67-10.33-6.8-15.78s-4-11.11-5.58-16.83-2.91-11.52-3.89-17.28a154.71,154.71,0,0,1-1.84-17,131.36,131.36,0,0,1,.28-16,110.57,110.57,0,0,1,2.1-14.11c.25-1.08.43-2.14.72-3.16s.54-2,.8-3c.48-2,1.16-3.74,1.69-5.44.26-.85.56-1.66.87-2.44l.87-2.24c.52-1.45,1.14-2.73,1.66-3.9,1-2.35,2-4.11,2.6-5.32l1-1.86s-.28.67-.82,1.92-1.36,3.08-2.18,5.49c-.43,1.19-.94,2.5-1.36,4l-.69,2.29c-.25.78-.48,1.6-.68,2.46-.39,1.72-.93,3.52-1.25,5.47-.19,1-.37,2-.57,3s-.3,2.07-.46,3.14a104.86,104.86,0,0,0-1,13.88,127.86,127.86,0,0,0,.88,15.47,150.7,150.7,0,0,0,3,16.24c1.35,5.47,3.06,10.92,5,16.3s4.2,10.61,6.56,15.71,5,10,7.64,14.6c1.32,2.32,2.7,4.56,4,6.76s2.69,4.31,4.08,6.33,2.69,4,4,5.87l2,2.77,2,2.62c.64.85,1.26,1.69,1.88,2.5l1.85,2.36c1.19,1.53,2.34,3,3.46,4.3,2.19,2.71,4.15,4.95,5.77,6.8.78.92,1.55,1.77,2.22,2.5l1.69,1.87,1.4,1.55Z"/></g><path class="cls-11" d="M514,347.69c-22.72-1.92-62.05,20.43-92,41.52-22.51,15.86-69.63,50.35-139.85,62.24-78.37,13.26-138.38-11.85-175.75-42.08C69.77,379.73,60,347.43,60,347.43s24.45,102,145.28,132.64S451,412.2,451,412.2l63-14.62Z"/><path class="cls-12" d="M514,380.33c-25.22-.71-75,27.37-79.56,30.4-39.27,26-138.36,81.75-234.83,57.32C135,451.7,97.25,415.48,75.87,384.51c18.48,32.4,49.88,75,129.39,95.56,52.4,13.55,106.72,4.74,149.12-14.48,70.77-32.08,137.2-30.13,159.62-28.27Z"/><path class="cls-13" d="M178.56,126.12l.88-1.22,1-1.4c.37-.56.91-1.12,1.45-1.77s1.14-1.39,1.84-2.06,1.39-1.45,2.19-2.16,1.64-1.47,2.54-2.17,1.82-1.43,2.81-2,2-1.32,3-1.87,2-1.13,3.05-1.62,2-.9,3-1.33,1.91-.74,2.8-1a39.47,39.47,0,0,1,4.45-1.18c.58-.11,1-.19,1.4-.23a6.31,6.31,0,0,1,.66-.06,6.5,6.5,0,1,1-.57,13s.08,0-.12-.07a7.76,7.76,0,0,0-.79-.18,25.4,25.4,0,0,0-3.31-.35c-.71-.06-1.48,0-2.32,0s-1.72,0-2.63.15-1.88.18-2.85.36-2,.37-2.94.59-2,.55-2.94.81-1.88.69-2.81,1-1.75.79-2.58,1.15-1.55.8-2.26,1.18-1.35.7-1.89,1.1l-1.44,1-1.25.83a.25.25,0,0,1-.35-.36Z"/><path class="cls-14" d="M59.77,388.1l-1.49-1.43L56.58,385l-2.13-2.3c-.81-.85-1.58-1.8-2.44-2.81s-1.72-2.1-2.59-3.25-1.78-2.34-2.65-3.59-1.75-2.53-2.61-3.83-1.65-2.62-2.47-3.93-1.54-2.62-2.27-3.89-1.41-2.53-2-3.73-1.21-2.33-1.73-3.4c-1-2.13-1.87-3.94-2.43-5.25-.28-.65-.5-1.18-.65-1.56s-.24-.66-.24-.64a8.75,8.75,0,0,1,17.13-3.6,3.54,3.54,0,0,0,0,.4c0,.29,0,.75,0,1.35.06,1.2.18,3,.4,5.07.11,1.06.24,2.21.4,3.43s.36,2.5.55,3.84.46,2.7.73,4.09.54,2.82.89,4.22.66,2.82,1.05,4.19.75,2.75,1.17,4,.81,2.57,1.25,3.74.82,2.33,1.26,3.32l1.15,2.78,1,2.13.9,1.85a.36.36,0,0,1-.16.47A.35.35,0,0,1,59.77,388.1Z"/><path class="cls-11" d="M54,219.29c-1.68-20.08,9.88-32.08,9.88-32.08"/><path class="cls-15" d="M53.58,219.31s-.19-.53-.51-1.46c-.15-.46-.35-1-.57-1.67s-.39-1.44-.62-2.29-.47-1.83-.61-2.82-.37-2.07-.48-3.19-.23-2.3-.27-3.51-.08-2.45,0-3.69.12-2.51.29-3.75.33-2.47.56-3.66.52-2.34.78-3.45.6-2.14,1-3.09.67-1.84,1-2.63.66-1.48.94-2.07.55-1.06.78-1.43a3.37,3.37,0,0,1,.31-.46l.16-.21A10.5,10.5,0,1,1,71.42,194.5l0-.07c0-.07,0-.06-.07,0a2.64,2.64,0,0,0-.62.25c-.3.16-.68.36-1.11.64s-.93.62-1.47,1-1.09.88-1.72,1.39-1.23,1.1-1.83,1.75-1.26,1.32-1.86,2.06S61.56,203,61,203.84s-1.08,1.67-1.64,2.52-.95,1.74-1.42,2.61-.78,1.74-1.16,2.58-.62,1.63-.89,2.38a21.37,21.37,0,0,0-.68,2.12c-.16.67-.3,1.25-.42,1.72-.23,1-.37,1.5-.37,1.5a.42.42,0,0,1-.81,0Z"/><path class="cls-16" d="M188.71,232.52l2.91-2.41c.91-.78,2-1.71,3.41-2.72s2.89-2.25,4.64-3.4,3.61-2.52,5.71-3.76c1-.63,2.09-1.33,3.22-1.95s2.28-1.27,3.46-1.91,2.42-1.24,3.67-1.86,2.52-1.26,3.85-1.8l4-1.7,4.14-1.51c1.38-.54,2.8-.93,4.21-1.37s2.84-.88,4.26-1.22,2.85-.73,4.27-1l4.21-.83c1.4-.31,2.77-.45,4.13-.67s2.69-.41,4-.51c2.6-.26,5.09-.51,7.37-.58l3.3-.15h3c1.87,0,3.51,0,4.84.08l4.23.19a15.74,15.74,0,0,1-1.4,31.44,15.94,15.94,0,0,1-5.2-1.13l-.08,0-3.07-1.26c-1-.42-2.19-.86-3.58-1.35l-2.23-.8-2.49-.76c-1.75-.58-3.66-1-5.71-1.57-1-.28-2.08-.46-3.17-.69s-2.2-.49-3.34-.63l-3.51-.52c-1.19-.15-2.4-.24-3.63-.37s-2.47-.19-3.72-.24-2.53-.15-3.79-.11l-3.82,0-3.81.23c-1.28,0-2.52.23-3.77.36s-2.5.24-3.7.47l-3.58.59c-1.18.19-2.31.48-3.43.71-2.24.44-4.33,1-6.27,1.54s-3.68,1.1-5.26,1.58c-.78.25-1.52.47-2.2.71l-1.87.69-3.54,1.31a.62.62,0,0,1-.79-.36A.63.63,0,0,1,188.71,232.52Z"/><path class="cls-17" d="M176.45,251.45l1.28-1c.39-.33.91-.72,1.51-1.15s1.3-.94,2.07-1.42,1.62-1,2.54-1.56,1.93-1,3-1.58,2.17-1,3.32-1.47,2.35-.88,3.56-1.31,2.46-.76,3.7-1,2.46-.55,3.67-.78,2.39-.39,3.52-.49,2.21-.22,3.21-.25,1.93-.07,2.75-.06,1.54,0,2.13,0l1.88.1h0a7.2,7.2,0,0,1-.78,14.37,7.28,7.28,0,0,1-2.52-.61l-1.29-.57c-.41-.19-.92-.39-1.51-.61s-1.27-.49-2-.72-1.58-.49-2.46-.72-1.84-.43-2.83-.65-2-.36-3.11-.47-2.17-.19-3.28-.28-2.23-.07-3.33,0-2.2.11-3.27.19-2.1.22-3.07.4-1.9.33-2.75.54-1.62.38-2.3.57-1.29.36-1.79.54l-1.55.52a.28.28,0,0,1-.36-.18A.27.27,0,0,1,176.45,251.45Z"/><path class="cls-11" d="M170.59,267.32s.12-.22.31-.61a14.21,14.21,0,0,1,1-1.58,12.12,12.12,0,0,1,.76-1c.27-.36.6-.7.94-1.07A19,19,0,0,1,176,261a19.58,19.58,0,0,1,2.82-1.65c.48-.21,1-.43,1.43-.59a13.92,13.92,0,0,1,1.34-.44,15.57,15.57,0,0,1,2.1-.46l.82-.12.12,0a3.56,3.56,0,0,1,1,7.05,3.45,3.45,0,0,1-1.54-.12l-.51-.16a10.08,10.08,0,0,0-1.41-.31,9,9,0,0,0-1-.12c-.35,0-.73,0-1.13-.05a15.42,15.42,0,0,0-2.54.26,15.63,15.63,0,0,0-2.55.76c-.39.17-.79.32-1.14.51s-.7.37-1,.56a12.88,12.88,0,0,0-1.44,1c-.33.28-.53.43-.53.43a.13.13,0,0,1-.19,0A.14.14,0,0,1,170.59,267.32Z"/><path class="cls-18" d="M47.05,219.26l-.66-.15a13.91,13.91,0,0,1-1.77-.56c-.37-.13-.75-.31-1.16-.5s-.82-.42-1.26-.66a17.59,17.59,0,0,1-4.85-4.19c-.32-.42-.65-.83-.92-1.25s-.53-.81-.74-1.2a14.22,14.22,0,0,1-.94-1.93l-.31-.77,0-.11a3.56,3.56,0,1,1,6.86-1.1l0,.53a9.13,9.13,0,0,0,0,1.44,9.65,9.65,0,0,0,.11,1c0,.35.15.72.23,1.11a16.23,16.23,0,0,0,.85,2.41,15.77,15.77,0,0,0,1.34,2.29c.26.34.5.69.77,1a10.83,10.83,0,0,0,.77.84,12.47,12.47,0,0,0,1.3,1.16l.55.42a.13.13,0,0,1,0,.19A.15.15,0,0,1,47.05,219.26Z"/><path class="cls-19" d="M168,131.55l-.16-.66a12.81,12.81,0,0,1-.31-1.83,12.15,12.15,0,0,1-.08-1.26,13.64,13.64,0,0,1,0-1.42,18.94,18.94,0,0,1,.46-3.13,20.25,20.25,0,0,1,1.07-3.1c.23-.47.44-1,.69-1.38s.48-.84.73-1.2a14.23,14.23,0,0,1,1.3-1.72l.54-.63.08-.09a3.56,3.56,0,1,1,4.1,5.61l-.49.22a9,9,0,0,0-1.27.67c-.27.16-.54.35-.83.56s-.58.45-.89.7a15,15,0,0,0-1.76,1.86,16,16,0,0,0-1.44,2.23c-.18.38-.38.76-.53,1.14s-.29.73-.39,1.07a12,12,0,0,0-.45,1.68l-.12.67a.13.13,0,0,1-.16.11A.13.13,0,0,1,168,131.55Z"/><path class="cls-20" d="M182.74,112.89a6.78,6.78,0,0,1,.18-1.13,9.47,9.47,0,0,1,.89-2.43,8.5,8.5,0,0,1,.77-1.23,8.86,8.86,0,0,1,.86-1,7.7,7.7,0,0,1,.71-.63l.29-.23a1.53,1.53,0,0,1,1.92,2.39,1.37,1.37,0,0,1-.55.28h0l-.25.07a6,6,0,0,0-.64.2,7.14,7.14,0,0,0-.9.43,6.94,6.94,0,0,0-1,.66,8.94,8.94,0,0,0-1.6,1.7,7.66,7.66,0,0,0-.58.93.06.06,0,0,1-.11,0Z"/><path class="cls-21" d="M49,386.18h-.8a16.9,16.9,0,0,1-2.17-.35,34.54,34.54,0,0,1-6.29-2.15,36.68,36.68,0,0,1-6-3.34,21.85,21.85,0,0,1-1.94-1.52l-.73-.66-.16-.15A4.47,4.47,0,1,1,38,373.12l.22.57a12.59,12.59,0,0,0,.75,1.57,29.28,29.28,0,0,0,3.35,4.79,32.16,32.16,0,0,0,4.33,4.29,15.33,15.33,0,0,0,1.64,1.15l.72.37a.17.17,0,0,1-.08.32Z"/><path class="cls-22" d="M404.76,420.61c-6.54,4.25-14.08,8.76-22.52,13.27a372.06,372.06,0,0,1-59.9,25.41,349.91,349.91,0,0,1-72,15.57,270.5,270.5,0,0,1-36.72,1.35,211.48,211.48,0,0,1-34.58-3.94c-2.73-.55-5.42-1.16-8.05-1.83l-1-.24-.5-.12s-.19-.05,0,0l-.14,0-.26-.09-2.12-.68-1.06-.33-.94-.34-1.88-.65c-5.13-1.8-10.1-3.75-14.81-5.77a197.41,197.41,0,0,1-25.29-13,158.54,158.54,0,0,1-18.84-13.47A134.23,134.23,0,0,1,91.7,423.86c-3.18-3.44-5.46-6.24-7-8.18-.76-1-1.29-1.73-1.67-2.23l-.57-.76a30.21,30.21,0,1,0-44,40.88l.56.48,1.08.93c.73.61,1.77,1.55,3.19,2.69,2.8,2.33,7,5.62,12.5,9.41a187,187,0,0,0,20.42,12.2,210.48,210.48,0,0,0,27.57,11.77,240.69,240.69,0,0,0,33.26,8.86c5.93,1.14,12,2.11,18.22,2.87l2.41.28,1.2.15,1.11.1,2.21.22,2.49.32q4.81.67,9.71,1.11a242.4,242.4,0,0,0,39.89.21,295.73,295.73,0,0,0,40-5.84,370.11,370.11,0,0,0,74-24.62,385.6,385.6,0,0,0,58.78-32.84c51.23-37.43,93.78-55,93.78-55S455.64,390.76,404.76,420.61Z"/><path class="cls-23" d="M40.56,406.55a30.06,30.06,0,0,1,17.45-6c-.83.22-1.67.48-2.51.78-12.76,4.55-20.86,22.2-14.56,34.62,8.87,17.52,24.49,27.51,41.58,36.07,14.86,7.45,37.63,14.93,53.72,19.12,57.56,15,109.45,5.39,166.87-6a355.22,355.22,0,0,1-48.51,14.17,295.73,295.73,0,0,1-40,5.84,242.27,242.27,0,0,1-39.88-.21q-4.91-.43-9.72-1.11l-2.48-.32-2.22-.22-1.1-.1-1.21-.15-2.4-.28c-6.24-.76-12.3-1.73-18.23-2.87a240.55,240.55,0,0,1-33.25-8.86,209.9,209.9,0,0,1-27.57-11.77,187.23,187.23,0,0,1-20.43-12.2c-5.51-3.79-9.7-7.08-12.5-9.41-1.42-1.14-2.46-2.08-3.18-2.69l-1.09-.93-.56-.48a30.21,30.21,0,0,1,1.75-47Z"/><g class="cls-24"><path class="cls-25" d="M65.56,412.43l.94.23,1.5.42c.53.2,1.16.39,1.81.69a26.38,26.38,0,0,1,9.24,6.69,29.06,29.06,0,0,1,2.24,2.79c.62.9,1.27,1.84,1.94,2.79,1.33,1.89,2.68,3.75,4.22,5.71s3.14,3.93,4.84,5.9c.85,1,1.74,1.94,2.62,2.93s1.8,1.93,2.73,2.87a125.36,125.36,0,0,0,11.57,10.44,110,110,0,0,0,11.19,7.85,84.46,84.46,0,0,0,8.54,4.6c2.13,1,3.41,1.43,3.41,1.43s-1.32-.31-3.55-1.08a85.71,85.71,0,0,1-9.05-3.75,112.19,112.19,0,0,1-12.15-6.79,127.9,127.9,0,0,1-12.92-9.48c-1.06-.87-2.08-1.78-3.12-2.67s-2-1.81-3-2.74c-2-1.85-3.86-3.72-5.63-5.59s-3.5-3.76-5-5.51c-.75-.87-1.48-1.72-2.19-2.53a20.39,20.39,0,0,0-1.93-1.91,18.39,18.39,0,0,0-6.94-3.91c-.44-.14-.84-.2-1.18-.29l-.75-.12-1-.11a4.51,4.51,0,0,1,1.08-9A4.71,4.71,0,0,1,65.56,412.43Z"/></g><path class="cls-26" d="M402.43,385.69l-.75-.3a15.35,15.35,0,0,0-2.47-.6,40.8,40.8,0,0,0-9.24-.08c-3.93.3-8.63,1-14,1.9l-17.68,3.17c-3.2.54-6.51,1.08-9.86,1.48-.82.1-1.69.19-2.48.26l-2.71.27c-1.81.16-3.54.32-5.38.44a167.46,167.46,0,0,1-22.44.28,97,97,0,0,1-22.2-3.8l-.39-.11-.29-.1-.57-.2-1.24-.43c-.85-.3-1.69-.61-2.53-.95-1.67-.66-3.3-1.39-4.88-2.17a57.45,57.45,0,0,1-8.84-5.37,40.19,40.19,0,0,1-12-13.57,26.65,26.65,0,0,1-2.42-7,27.85,27.85,0,0,1-.49-6.92,21.25,21.25,0,0,1,1.2-5.91,12.57,12.57,0,0,1,2.3-4,10.24,10.24,0,0,1,2.75-2.3l3.14,2.7a34.14,34.14,0,0,0,48.21-2.39c12.66-14,10.22-36.58-2.38-48.21s-30.42-16.1-47.8-13.6c-15.38,2.21-22.36,6.74-31.79,14a62.35,62.35,0,0,0-6.83,6.11c-1.1,1.14-2.17,2.32-3.2,3.58-.84,1-2.63,3.29-3.35,4.39l-.68,1.15-.09.15c.1-.12-.92,1.26-.53.74l-.07.12-.3.51-.6,1c-.8,1.36-1.52,2.77-2.21,4.19a62.79,62.79,0,0,0-3.44,8.83,66.24,66.24,0,0,0-2.88,18.41,71.52,71.52,0,0,0,2.1,18.09,73.27,73.27,0,0,0,6.52,16.88,69.46,69.46,0,0,0,10.66,14.83,79.18,79.18,0,0,0,28.09,19,90.65,90.65,0,0,0,15.24,4.66c2.54.55,5.09,1,7.62,1.32,1.27.17,2.54.19,3.8.31l1.94.05,1,.08.5.15.4.07.8.06.41,0,.1,0s.33,0,.25,0h.23l1.84,0c1.23,0,2.45,0,3.66,0,2.42,0,4.8-.15,7.15-.33a128,128,0,0,0,13.6-1.76,186.43,186.43,0,0,0,24.19-6.21c1.83-.58,3.71-1.21,5.46-1.81l2.58-.91c1-.33,1.82-.63,2.7-1,3.49-1.3,6.72-2.66,9.78-4l16.44-7.24c4.86-2.09,9.12-3.8,12.67-5a38.06,38.06,0,0,1,8.32-2,14,14,0,0,1,2.16,0l.79.11a.68.68,0,0,0,.36-1.31Z"/><path class="cls-23" d="M317.55,340.06a34.13,34.13,0,0,1-44.78,5.1A36.83,36.83,0,0,0,296,343.59c18.79-8,26.15-29.3,19.22-47.8a30.76,30.76,0,0,0-3.72-7c1.26,1,2.5,2,3.68,3.05C327.76,303.48,330.2,326.09,317.55,340.06Z"/><path class="cls-23" d="M213.49,359.53a71.52,71.52,0,0,1-2.1-18.09A66.24,66.24,0,0,1,214.27,323a62.79,62.79,0,0,1,3.44-8.83c.69-1.42,1.42-2.83,2.21-4.19l.6-1,.3-.51.08-.12c-.39.52.62-.86.53-.74l.08-.15.68-1.15c.73-1.1,2.51-3.42,3.35-4.39,1-1.26,2.11-2.44,3.2-3.58a62.43,62.43,0,0,1,6.84-6.11c6.79-5.22,12.33-9,20.64-11.58a62.66,62.66,0,0,0-26.54,20,44.12,44.12,0,0,0-9.17,20.26,44,44,0,0,0-1.83,22.37c.62,13.06,6.38,32.88,30,52,4.88,3.94,11.14,6.72,17.11,8.93,20,7.43,30.76,12.87,99-4.33L362,401.05c-3.07,1.32-6.3,2.68-9.79,4-.88.34-1.75.64-2.7,1l-2.57.91c-1.75.6-3.63,1.23-5.47,1.81a186.43,186.43,0,0,1-24.19,6.21,128,128,0,0,1-13.6,1.76c-2.34.18-4.73.31-7.15.33-1.21,0-2.43,0-3.65,0l-1.85,0h-.23l-.25,0h-.51l-.8,0h-.41l-.5,0-1-.08-1.93-.16c-1.27-.12-2.53-.26-3.8-.43-2.53-.34-5.07-.77-7.62-1.32a90.93,90.93,0,0,1-15.24-4.66,79.27,79.27,0,0,1-28.09-19A69.46,69.46,0,0,1,220,376.41,73.72,73.72,0,0,1,213.49,359.53Z"/><g class="cls-27"><path class="cls-25" d="M301.44,316.36l.57-1a.76.76,0,0,0,.14-.33,1.87,1.87,0,0,1,.12-.25c.05-.08.08-.31.14-.47a2.52,2.52,0,0,0,.14-.6,8.56,8.56,0,0,0-.12-3.48,16.29,16.29,0,0,0-2.09-4.87,18.36,18.36,0,0,0-1.91-2.57,15,15,0,0,0-1.17-1.23l-.15-.15,0,0,0,0,.08.06-.09-.08-.39-.33-.8-.68c-.25-.21-.54-.48-.78-.65l-.73-.54a18.64,18.64,0,0,0-1.57-1.08,32.89,32.89,0,0,0-3.56-2,38.06,38.06,0,0,0-17.28-3.64,39.89,39.89,0,0,0-9.11,1.23l-1.1.29-.23.06-.29.09-.56.19c-.74.25-1.53.48-2.19.76-1.38.51-2.75,1.13-4.08,1.78a46.6,46.6,0,0,0-7.26,4.5,50.26,50.26,0,0,0-5.82,5.07c-.87.84-1.61,1.72-2.36,2.53s-1.4,1.62-2,2.41c-1.21,1.55-2.19,3-2.95,4.15l-1,1.6c-.27.48-.51.89-.69,1.22l-.58,1,.49-1.06c.15-.34.35-.77.58-1.27l.87-1.69c.67-1.26,1.52-2.77,2.61-4.44.52-.85,1.16-1.7,1.79-2.62s1.37-1.86,2.19-2.78a51.82,51.82,0,0,1,5.54-5.75,48.34,48.34,0,0,1,7.2-5.37,47.06,47.06,0,0,1,4.23-2.3c.76-.39,1.47-.66,2.2-1l.54-.23.28-.12.34-.12,1.17-.42a44.31,44.31,0,0,1,29.87.25,41.65,41.65,0,0,1,4.44,2,22.54,22.54,0,0,1,2.11,1.22l1.05.65c.35.21.59.41.89.61l.84.61.42.29.11.08.21.17.23.19c.61.49,1.19,1,1.73,1.52a26.1,26.1,0,0,1,2.91,3.28,24.06,24.06,0,0,1,3.73,7,17,17,0,0,1,.82,6.64,10,10,0,0,1-.17,1.39,10.87,10.87,0,0,1-.27,1.26c-.12.43-.25.83-.38,1.19s-.26.73-.32.85l-.48,1.06a4.5,4.5,0,1,1-8.22-3.67C301.32,316.6,301.38,316.47,301.44,316.36Z"/></g><g class="cls-27"><path class="cls-25" d="M277,221.82l.21-.34.11-.19.06-.11h0s.05,0,.1-.08a4.15,4.15,0,0,0,.53-2.13,7,7,0,0,0-1.09-3.68l-.15-.23,0-.06,0,0v0l.07.06h0l-.13-.15-.46-.54a7,7,0,0,0-.86-.86,11.65,11.65,0,0,0-2.31-1.55,15,15,0,0,0-2.75-1.08,18.25,18.25,0,0,0-2.94-.6,30.68,30.68,0,0,0-5.53-.14c-1.65.08-3,.23-4,.33l-1.53.17,1.45-.54c.92-.34,2.23-.84,3.85-1.35a33.49,33.49,0,0,1,5.79-1.32,22.62,22.62,0,0,1,3.46-.18,20.54,20.54,0,0,1,3.68.45,16.25,16.25,0,0,1,3.68,1.28,11.23,11.23,0,0,1,1.77,1l.74.51.17.12.26.23.39.34a13.84,13.84,0,0,1,4,6.35,12.54,12.54,0,0,1,.34,5.85,10.14,10.14,0,0,1-.29,1.15c-.07.23-.13.43-.17.58l-.12.39a4.54,4.54,0,1,1-8.69-2.6A4.84,4.84,0,0,1,277,221.82Z"/></g><g class="cls-27"><path class="cls-25" d="M218.34,155.48l-1.75-.31-2.1-.37-1.33-.22-1.44-.2c-1-.14-2.14-.31-3.38-.46l-4.05-.41-4.62-.28c-1.62,0-3.34-.09-5.12-.06A104.89,104.89,0,0,0,183,154a124.63,124.63,0,0,0-12.76,2.38c-4.4,1.09-8.93,2.42-13.49,3.92-2.28.79-4.58,1.55-6.87,2.41-1.13.42-2.34.82-3.41,1.26l-3.44,1.37c-4.46,1.88-8.91,3.88-13.14,6.17-1.07.55-2.11,1.13-3.15,1.72s-2.08,1.16-3.09,1.77c-2,1.24-4,2.41-5.92,3.71-3.86,2.48-7.41,5.15-10.76,7.71-1.63,1.34-3.24,2.61-4.75,3.91s-3,2.54-4.29,3.82c-2.72,2.49-5.11,4.89-7.18,7.06l-2.87,3.08c-.85,1-1.64,1.88-2.34,2.7-1.44,1.61-2.45,3-3.2,3.86l-1.12,1.38s.37-.5,1-1.44,1.64-2.35,3-4l2.21-2.83,2.7-3.24c2-2.29,4.24-4.83,6.84-7.49,1.27-1.37,2.7-2.67,4.12-4.09s3-2.76,4.59-4.2c3.24-2.78,6.7-5.68,10.49-8.42,1.85-1.41,3.84-2.72,5.82-4.09,1-.67,2-1.31,3-2s2.05-1.32,3.12-1.93c4.18-2.57,8.64-4.87,13.17-7.08l3.36-1.54c1.19-.56,2.29-1,3.44-1.51,2.26-1,4.56-1.93,6.83-2.87,4.57-1.82,9.14-3.47,13.66-4.88A130.28,130.28,0,0,1,182,147.27a112,112,0,0,1,12.26-1.6c1.91-.15,3.75-.18,5.5-.27h5l4.36.17c1.35.08,2.61.2,3.74.28l1.6.13,1.35.15,2.12.24,1.76.2a4.5,4.5,0,0,1-1,9Z"/></g></g></g><g id="DESIGNED_BY_FREEPIK" data-name="DESIGNED BY FREEPIK"><path class="cls-28" d="M373.77,136.9a6.7,6.7,0,0,1-.11-1c0-.36,0-.72,0-1.13,0-.13-.3-3.1-.54-2.46l-.5,1.33-1.74-3.81-3.06-1.48-4,2.16L362,134.75c-.27.62,2.44,3.39,3,3.71s1.38.41,2,.82c1,.67,1.79,2.21,2.53,3.12a.57.57,0,0,0,.39.26.56.56,0,0,0,.28-.1c1.35-.82,2.68-1.64,4-2.48.23-.15.49-.33.52-.61C374.79,138.79,373.92,137.63,373.77,136.9Z"/><polygon class="cls-29" points="370.52 145.85 400.52 183.1 434.61 185.02 432.96 164.65 406.65 164.06 374.75 135.81 368.17 140.67 370.52 145.85"/><polygon class="cls-29" points="445.81 364.01 446.77 368.54 438.68 375 433.18 371.44 436.75 365.94 444.84 359.48 445.81 364.01"/><polygon class="cls-30" points="430.88 224.25 433.81 238.01 428.18 301.53 445.97 362.45 437.37 366.16 400.52 295.44 396.48 273.03 395.26 225.83 430.88 224.25"/><polygon class="cls-30" points="377.43 228.42 375.35 287.5 384.69 363.95 393.25 364.15 400.32 293.98 413.7 223.95 377.43 228.42"/><polygon class="cls-29" points="393.23 363.13 393.12 367.76 383.75 372.18 379.23 367.44 383.97 362.92 393.23 363.13"/><path class="cls-29" d="M438,248.33c-.89,5.32-2.43,12.42-4.51,12.3a2,2,0,0,1-1-.53c-3.15-2.6-5.12-5.78-8.24-8.3a40.52,40.52,0,0,0-11.16-6,116.3,116.3,0,0,0-18.18-5.46c-4.87-1-9.86-1.54-14.8-2.07-4.11-.44-8.11,0-12.17-1a27,27,0,0,1-11.28-6.11.67.67,0,0,1-.26-.38.72.72,0,0,1,.15-.48c1.31-2.2,2.38-4.43,4.32-6.08a44.11,44.11,0,0,0,5.69-6.65,121,121,0,0,0,10-14.82c4.23-7,8.81-13.69,12.94-20.71,2.87-4.87,5.59-9.87,9.06-14.34,2.73-3.5,7.35-8.49,11.93-9.38a13.59,13.59,0,0,1,4.71.2l14.2,2.3a11.6,11.6,0,0,1,4.94,1.59c2.14,1.51,3,4.22,3.72,6.74A114.69,114.69,0,0,1,442.16,204c-.17,6.16-.42,12.33-.88,18.47-.5,6.86-1.26,13.7-2.44,20.47C438.71,243.68,438.43,245.8,438,248.33Z"/><path class="cls-31" d="M417.47,184.11a39.31,39.31,0,0,0-1,8.1c-.77,16.56.45,36.65-.32,53.22-12.61-2.53-28.44-6.43-41.05-9,1.61-6,4.43-14.08,6-20a89.35,89.35,0,0,1,3.62-11.29c2.49-5.87,6.24-11.14,10-16.35l20.62-28.89a3.29,3.29,0,0,1,3.56-1.73,37.66,37.66,0,0,1,11.44,1.54c.27,3.47-4.17,8.58-6,11.42C421.73,175.27,418.72,179.3,417.47,184.11Z"/><path class="cls-28" d="M419.2,159.38l6,2.72a39.63,39.63,0,0,0,2.42-5.25c1.91.32,4.24.46,5.51-1.22a6.34,6.34,0,0,0,.85-1.8l2.76-7.84a7.84,7.84,0,0,0,.62-2.79,5.73,5.73,0,0,0-2.28-4,12.48,12.48,0,0,0-10.92-3,6.19,6.19,0,0,0-2.88,1.41,9.67,9.67,0,0,0-2.22,4.69L417.82,147c-.49,1.81-.92,3.93.13,5.33.56.75,1.46,1.16,1.87,2C420.54,155.81,419.34,157.64,419.2,159.38Z"/><path class="cls-29" d="M412.91,124.18a20.31,20.31,0,0,0-.15-2.35,35.2,35.2,0,0,1-.71-5c0-1.71.72-3.62,2.19-4.33a4.57,4.57,0,0,1,3-.12,17.23,17.23,0,0,1,8.62,4.86c2.25,2.32,3.95,5,7.23,5.43,3.07.43,4.66,1.93,6.72,4.52,2.23,2.81,5.9,5.33,7.61,8.44a9.73,9.73,0,0,1,1.05,4.39,15.66,15.66,0,0,1-7.24,13.51,19.69,19.69,0,0,1-3.13,1.45c-2.22.83-4.9,1.89-7.07,1.4.95-1.86,5.58-6.78,5.13-9-.72-3.57-5.71-5.42-8.52-6.3-3.07-1-6.65-.24-9.6-1.38-2.12-.81-4-3.33-5.07-5.43C411.69,131.65,412.92,127.06,412.91,124.18Z"/><path class="cls-32" d="M350.16,15.41l-133.69,73c-4.1,2.24.67,23.45,10.57,47.4s21.51,42.34,26,41l146.22-42.7Z"/><ellipse class="cls-29" cx="375.16" cy="74.6" rx="4.87" ry="64.06" transform="translate(-0.04 148.99) rotate(-22.46)"/><path class="cls-33" d="M362.1,127.17c-1.25-1.1-2.54-2.16-3.83-3.22l-5.39-4.42c-13.39-11-26.33-22.49-40.26-32.84-5.35-4-10.7-8-16.34-11.5s-9.94-6.84-15.83-9.94L224.83,96.06c-3.2,1.77.9,19.26,9.1,39.1s17.65,35.12,21.17,34.11l14.08-4,32.57-9.3,36.68-10.46L364.78,138c1.15-.33,3.16-.5,4.15-1.19.32-.22.66,0,.84-.53.33-.95-2.47-3.83-3.06-4.52A46.15,46.15,0,0,0,362.1,127.17Z"/><g class="cls-34"><path class="cls-35" d="M369.72,136.5c-1.31,1.63-21.32-11.6-46.58-31.74S278.47,67,279.77,65.34s22.84,13.36,48.09,33.49S371,134.86,369.72,136.5Z"/></g><path class="cls-35" d="M278.61,111.54q5.82-2.4,11.54-5.05c2.12-1,.63-4.3-1.5-3.31q-5.22,2.43-10.53,4.63l-3.71-8.19,7.41-3.47c2.11-1,.62-4.3-1.5-3.31l-19.2,9c-2.11,1-.62,4.31,1.5,3.31l8.5-4,3.64,8q-5.22,2.1-10.51,4c-2.2.79-.69,4.09,1.5,3.31q5.75-2.06,11.4-4.36A2,2,0,0,0,278.61,111.54Z"/><path class="cls-35" d="M258.28,130.93c-.1-.27-1-2.46-1.28-3.29a10.24,10.24,0,0,0,1.75.61c.48.14.94.32,1.43.45,2,.55,4.21.61,5.87-.84a3.74,3.74,0,0,0-3.18-6.57c-2.27.53-1.72,4.12.56,3.59.28.57,0,.76-1,.58a6.1,6.1,0,0,1-1.73-.38c-.72-.21-1.41-.47-2.14-.64a5.22,5.22,0,0,0-4.1.31c-2.69,1.79-.35,5.51.47,7.68S259.11,133.11,258.28,130.93Z"/><path class="cls-35" d="M298.43,129a1.63,1.63,0,0,0,.63-2.19c-2.67-5.47-12.13-4.17-16.61-2.09-5,2.32-9.82,7.75-7,13.52s9.78,6.44,15.11,4.35C295.19,140.74,300,134.19,298.43,129ZM288.3,139.52c-3.48,1.09-8.41.6-9.81-3.4s3-7.12,6.09-8.4a14.83,14.83,0,0,1,4.91-1.09c1.27-.06,3.85-.09,5.33.74a1.86,1.86,0,0,0,0,2.16c1.09,1.64-.71,5.08-1.61,6.49A8.62,8.62,0,0,1,288.3,139.52Z"/><path class="cls-28" d="M364.65,145.18a5.55,5.55,0,0,1-.17-1.1c0-.38,0-.76,0-1.19,0-.15-.5-3.29-.72-2.59l-.45,1.44-2.08-4-3.34-1.4-4.1,2.54L352,143.6c-.24.68,2.8,3.47,3.4,3.78s1.5.34,2.16.75c1.06.65,2,2.24,2.88,3.16a.59.59,0,0,0,.43.26.48.48,0,0,0,.29-.13q2.08-1.41,4.12-2.88c.24-.17.5-.38.51-.67C365.85,147.14,364.86,146,364.65,145.18Z"/><polygon class="cls-29" points="361.72 156.68 395.73 194.35 431.96 194.35 429 172.87 401.08 173.82 365.6 145.79 358.91 151.33 361.72 156.68"/></g></g></svg>